<svg version="1.1" id="Layer_1" xmlns="http://www.w3.org/2000/svg" xmlns:xlink="http://www.w3.org/1999/xlink" x="0px" y="0px"
	 width="100%" viewBox="0 0 570 262" enable-background="new 0 0 570 262" xml:space="preserve">
<path fill="#161513" opacity="1.000000" stroke="none" 
	d="
M563.095947,263.000000 
	C375.418152,263.000000 188.254791,263.000000 1.045728,263.000000 
	C1.045728,175.698730 1.045728,88.397415 1.045728,1.048055 
	C190.964569,1.048055 380.929138,1.048055 570.946899,1.048055 
	C570.946899,88.296341 570.946899,175.592712 570.946899,263.000000 
	C568.537231,263.000000 566.073792,263.000000 563.095947,263.000000 
M301.649719,160.901733 
	C301.752167,159.937073 301.854614,158.972427 301.884857,157.254105 
	C301.184631,153.886475 299.085480,152.675766 295.733826,152.966461 
	C290.998566,153.377167 286.245789,153.586212 281.877533,153.858002 
	C282.418030,157.007767 282.955048,158.713486 282.964905,160.422256 
	C283.036926,172.887360 282.915558,185.354095 283.060425,197.817932 
	C283.099609,201.188690 282.006989,203.233139 278.650391,203.900070 
	C274.981415,204.629074 274.374176,202.246262 273.484741,199.459427 
	C273.031860,198.040283 270.945221,196.148224 269.635651,196.177811 
	C265.193237,196.278214 260.764221,197.115097 256.348450,197.790756 
	C256.140686,197.822540 256.074432,199.004913 256.001587,199.658051 
	C255.044571,208.240692 260.859161,216.646973 269.199249,218.885056 
	C279.167389,221.559998 288.206421,220.157852 296.671387,213.107605 
	C301.195862,214.142609 305.711426,215.219452 310.249695,216.189880 
	C311.834686,216.528778 313.476898,216.596634 315.091003,216.803741 
	C317.233856,217.078705 319.526550,216.971878 321.489899,217.722275 
	C329.342987,220.723831 337.133087,221.364227 345.364716,218.631424 
	C348.143250,218.997131 350.938934,219.264542 353.697327,219.745758 
	C364.929840,221.705322 376.140503,223.615219 386.209412,215.882568 
	C387.753937,214.696411 390.342896,213.616394 390.571808,212.186752 
	C391.593475,205.805649 392.674377,199.259201 392.189911,192.889923 
	C391.967590,189.967346 388.194763,187.309998 386.020020,184.541809 
	C381.331177,178.573425 369.522736,176.603790 362.218842,180.412933 
	C360.456329,175.238403 359.167908,169.829956 356.769409,164.969238 
	C355.090515,161.566833 352.450623,157.937943 349.264313,156.122452 
	C342.108093,152.045013 333.910492,150.215958 325.975403,153.187851 
	C320.121124,155.380432 313.645264,158.246658 309.814514,162.803543 
	C306.483246,166.766251 306.098297,173.455765 305.145935,179.064972 
	C304.654785,181.957611 304.057922,183.402328 301.010956,182.050613 
	C301.012512,175.039612 301.014069,168.028595 301.649719,160.901733 
M237.905426,203.490997 
	C237.905426,207.581512 237.905426,211.672028 237.905426,215.754684 
	C242.270767,215.754684 246.030823,215.754684 249.959076,215.754684 
	C249.959076,195.830566 249.959076,176.126358 249.959076,156.317139 
	C245.860992,156.317139 241.978821,156.317139 237.905426,156.317139 
	C237.905426,171.912247 237.905426,187.202560 237.905426,203.490997 
M188.234970,195.850586 
	C184.626434,194.395416 183.065704,195.477615 182.943649,199.499817 
	C182.621597,210.111877 190.924225,219.351089 201.862869,219.942459 
	C206.198288,220.176849 211.010162,220.985672 214.794418,219.486542 
	C218.888474,217.864700 222.335678,214.134964 225.484818,210.779999 
	C227.392242,208.747879 229.268768,205.705353 229.325104,203.077469 
	C229.673141,186.843750 229.499924,170.598846 229.499924,154.363678 
	C228.479782,153.883667 227.751999,153.272461 226.993042,153.230957 
	C223.839935,153.058502 220.677109,152.992676 217.518433,153.008148 
	C211.481277,153.037689 211.001282,153.542114 210.995987,159.591919 
	C210.985352,171.750214 211.106934,183.910751 210.870438,196.064438 
	C210.834686,197.900742 209.593628,200.329636 208.123718,201.337463 
	C206.822357,202.229721 204.425674,201.524460 202.279297,201.524460 
	C201.792358,200.294952 201.402237,199.031326 200.810791,197.870239 
	C199.223343,194.753754 191.619583,193.448929 188.234970,195.850586 
z"/>
<path fill="#FFFFFF" opacity="1.000000" stroke="none" 
	d="
M237.905426,202.991928 
	C237.905426,187.202560 237.905426,171.912247 237.905426,156.317139 
	C241.978821,156.317139 245.860992,156.317139 249.959076,156.317139 
	C249.959076,176.126358 249.959076,195.830566 249.959076,215.754684 
	C246.030823,215.754684 242.270767,215.754684 237.905426,215.754684 
	C237.905426,211.672028 237.905426,207.581512 237.905426,202.991928 
z"/>
<path fill="#0B0A0B" opacity="1.000000" stroke="none" 
	d="
M188.586899,195.817444 
	C191.619583,193.448929 199.223343,194.753754 200.810791,197.870239 
	C201.402237,199.031326 201.792358,200.294952 202.279297,201.524460 
	C204.425674,201.524460 206.822357,202.229721 208.123718,201.337463 
	C209.593628,200.329636 210.834686,197.900742 210.870438,196.064438 
	C211.106934,183.910751 210.985352,171.750214 210.995987,159.591919 
	C211.001282,153.542114 211.481277,153.037689 217.518433,153.008148 
	C220.677109,152.992676 223.839935,153.058502 226.993042,153.230957 
	C227.751999,153.272461 228.479782,153.883667 229.499924,154.363678 
	C229.499924,170.598846 229.673141,186.843750 229.325104,203.077469 
	C229.268768,205.705353 227.392242,208.747879 225.484818,210.779999 
	C222.335678,214.134964 218.888474,217.864700 214.794418,219.486542 
	C211.010162,220.985672 206.198288,220.176849 201.862869,219.942459 
	C190.924225,219.351089 182.621597,210.111877 182.943649,199.499817 
	C183.065704,195.477615 184.626434,194.395416 188.586899,195.817444 
M213.951920,169.507233 
	C213.946930,179.152466 214.071121,188.800079 213.892303,198.442093 
	C213.769730,205.052353 209.321274,208.954269 203.559570,206.766174 
	C200.765228,205.704971 199.013443,201.898468 196.173828,198.624908 
	C193.816208,198.624908 190.042801,198.624908 185.758972,198.624908 
	C186.082397,200.849258 186.125214,202.839828 186.680069,204.675659 
	C189.584579,214.285461 200.916809,219.550995 211.812622,216.461060 
	C219.829788,214.187485 225.783905,208.510773 225.927475,201.684998 
	C226.244736,186.602753 226.026138,171.509262 226.026138,156.288330 
	C221.882233,156.288330 218.010498,156.288330 213.951920,156.288330 
	C213.951920,160.563690 213.951920,164.536819 213.951920,169.507233 
z"/>
<path fill="#0B0A0B" opacity="1.000000" stroke="none" 
	d="
M301.012970,182.984177 
	C304.057922,183.402328 304.654785,181.957611 305.145935,179.064972 
	C306.098297,173.455765 306.483246,166.766251 309.814514,162.803543 
	C313.645264,158.246658 320.121124,155.380432 325.975403,153.187851 
	C333.910492,150.215958 342.108093,152.045013 349.264313,156.122452 
	C352.450623,157.937943 355.090515,161.566833 356.769409,164.969238 
	C359.167908,169.829956 360.456329,175.238403 361.958801,181.071167 
	C361.145844,185.109268 360.707275,188.513809 359.985443,191.857224 
	C359.684235,193.252472 358.780670,194.517685 358.167664,195.378067 
	C358.100494,188.340042 358.800415,181.639236 357.762451,175.219437 
	C355.860901,163.458069 345.836914,155.429688 334.034027,155.025269 
	C322.354950,154.625092 312.261017,161.645615 309.126373,173.053558 
	C306.631378,182.133667 306.410400,191.440277 309.694305,200.429230 
	C310.927155,203.803909 312.517181,207.554565 315.091644,209.843170 
	C325.126648,218.763824 336.309265,219.424393 347.989105,213.267883 
	C347.008392,215.087830 346.014099,216.546921 345.019775,218.006012 
	C337.133087,221.364227 329.342987,220.723831 321.489899,217.722275 
	C319.526550,216.971878 317.233856,217.078705 315.091003,216.803741 
	C313.476898,216.596634 311.834686,216.528778 310.249695,216.189880 
	C305.711426,215.219452 301.195862,214.142609 296.103241,212.900711 
	C295.055328,212.138474 294.575562,211.583130 294.197327,210.730347 
	C295.187256,209.285065 296.075714,208.137207 297.312592,206.995880 
	C298.125549,207.012207 298.590118,207.022003 299.040527,207.395599 
	C299.042389,208.246017 299.058411,208.732635 298.844208,209.406967 
	C298.610962,210.184540 298.558319,211.286270 298.611969,211.291473 
	C303.160217,211.732315 307.716705,212.088272 312.272583,212.450256 
	C312.459961,211.958557 312.647369,211.466843 312.834747,210.975143 
	C311.237030,209.037674 309.639282,207.100204 307.982758,204.807434 
	C306.949768,203.978546 305.975616,203.504913 304.871582,202.714111 
	C304.854950,200.973587 305.275665,199.492477 305.021210,198.138199 
	C304.367523,194.658905 307.424866,190.015182 301.838379,187.635681 
	C301.462219,185.862137 301.237610,184.423157 301.012970,182.984177 
z"/>
<path fill="#060606" opacity="1.000000" stroke="none" 
	d="
M294.095795,211.027786 
	C294.575562,211.583130 295.055328,212.138474 295.766937,212.846985 
	C288.206421,220.157852 279.167389,221.559998 269.199249,218.885056 
	C260.859161,216.646973 255.044571,208.240692 256.001587,199.658051 
	C256.074432,199.004913 256.140686,197.822540 256.348450,197.790756 
	C260.764221,197.115097 265.193237,196.278214 269.635651,196.177811 
	C270.945221,196.148224 273.031860,198.040283 273.484741,199.459427 
	C274.374176,202.246262 274.981415,204.629074 278.650391,203.900070 
	C282.006989,203.233139 283.099609,201.188690 283.060425,197.817932 
	C282.915558,185.354095 283.036926,172.887360 282.964905,160.422256 
	C282.955048,158.713486 282.418030,157.007767 281.877533,153.858002 
	C286.245789,153.586212 290.998566,153.377167 295.733826,152.966461 
	C299.085480,152.675766 301.184631,153.886475 301.675415,157.849670 
	C301.315857,159.302689 301.165741,160.160141 301.015625,161.017593 
	C301.014069,168.028595 301.012512,175.039612 301.011963,182.517395 
	C301.237610,184.423157 301.462219,185.862137 301.837708,188.087830 
	C301.677277,193.932678 301.365967,198.990829 300.919434,204.321716 
	C300.207733,205.406906 299.631195,206.219360 299.054657,207.031799 
	C298.590118,207.022003 298.125549,207.012207 297.344635,206.600708 
	C297.343567,205.259460 297.893555,204.330673 297.937164,203.378708 
	C298.293976,195.586868 298.671875,187.792847 298.815247,179.995285 
	C298.961060,172.068085 298.847473,164.136093 298.847473,156.237488 
	C294.297333,156.237488 290.376434,156.237488 286.118469,156.237488 
	C286.118469,158.141159 286.119385,159.771408 286.118286,161.401642 
	C286.109802,173.723328 286.203888,186.046295 286.051117,198.366196 
	C285.967804,205.084671 281.612213,208.956528 275.847290,206.746857 
	C273.131073,205.705734 271.458466,201.941772 269.312988,199.411591 
	C269.591492,199.057159 269.870026,198.702713 270.148529,198.348267 
	C268.164093,198.348267 266.179688,198.348282 264.195251,198.348282 
	C262.253021,198.348282 260.310791,198.348267 258.390930,198.348267 
	C258.140839,207.685944 262.350220,213.647491 270.510986,215.986237 
	C279.230316,218.485046 287.181885,217.187805 294.095795,211.027786 
z"/>
<path fill="#270B23" opacity="1.000000" stroke="none" 
	d="
M345.192261,218.318726 
	C346.014099,216.546921 347.008392,215.087830 348.148499,212.977417 
	C353.782013,208.148209 356.701843,202.434830 358.151001,195.842041 
	C358.780670,194.517685 359.684235,193.252472 359.985443,191.857224 
	C360.707275,188.513809 361.145844,185.109268 361.852722,181.373795 
	C369.522736,176.603790 381.331177,178.573425 386.020020,184.541809 
	C388.194763,187.309998 391.967590,189.967346 392.189911,192.889923 
	C392.674377,199.259201 391.593475,205.805649 390.571808,212.186752 
	C390.342896,213.616394 387.753937,214.696411 386.209412,215.882568 
	C376.140503,223.615219 364.929840,221.705322 353.697327,219.745758 
	C350.938934,219.264542 348.143250,218.997131 345.192261,218.318726 
M353.889740,211.720001 
	C353.889740,211.720001 353.730408,211.768311 353.102173,212.036377 
	C352.002289,213.088638 350.902435,214.140884 349.802551,215.193130 
	C349.954590,215.630463 350.106659,216.067795 350.258698,216.505142 
	C358.006317,217.085922 365.797577,218.401443 373.483612,217.945068 
	C377.472229,217.708221 381.274780,214.337250 385.707886,212.066940 
	C386.198761,211.401825 386.689636,210.736725 387.720337,209.754166 
	C388.119293,208.829437 388.518280,207.904709 389.352173,206.268967 
	C392.352386,194.154938 387.340363,184.731079 376.139343,181.749283 
	C375.062317,181.462570 373.680939,182.319199 371.685425,182.654068 
	C369.313721,183.291992 366.820526,183.665634 364.620422,184.676910 
	C363.483765,185.199387 362.867462,186.853912 361.827148,188.844559 
	C360.170868,195.120605 358.514557,201.396652 356.343964,208.092026 
	C355.470428,209.307144 354.596863,210.522247 353.889740,211.720001 
z"/>
<path fill="#0B0A0B" opacity="1.000000" stroke="none" 
	d="
M301.332672,160.959656 
	C301.165741,160.160141 301.315857,159.302689 301.711487,158.226501 
	C301.854614,158.972427 301.752167,159.937073 301.332672,160.959656 
z"/>
<path fill="#FBFBFB" opacity="1.000000" stroke="none" 
	d="
M213.951920,169.008606 
	C213.951920,164.536819 213.951920,160.563690 213.951920,156.288330 
	C218.010498,156.288330 221.882233,156.288330 226.026138,156.288330 
	C226.026138,171.509262 226.244736,186.602753 225.927475,201.684998 
	C225.783905,208.510773 219.829788,214.187485 211.812622,216.461060 
	C200.916809,219.550995 189.584579,214.285461 186.680069,204.675659 
	C186.125214,202.839828 186.082397,200.849258 185.758972,198.624908 
	C190.042801,198.624908 193.816208,198.624908 196.173828,198.624908 
	C199.013443,201.898468 200.765228,205.704971 203.559570,206.766174 
	C209.321274,208.954269 213.769730,205.052353 213.892303,198.442093 
	C214.071121,188.800079 213.946930,179.152466 213.951920,169.008606 
z"/>
<path fill="#F9FAF9" opacity="1.000000" stroke="none" 
	d="
M358.167664,195.378082 
	C356.701843,202.434830 353.782013,208.148209 348.134888,212.616577 
	C336.309265,219.424393 325.126648,218.763824 315.091644,209.843170 
	C312.517181,207.554565 310.927155,203.803909 309.694305,200.429230 
	C306.410400,191.440277 306.631378,182.133667 309.126373,173.053558 
	C312.261017,161.645615 322.354950,154.625092 334.034027,155.025269 
	C345.836914,155.429688 355.860901,163.458069 357.762451,175.219437 
	C358.800415,181.639236 358.100494,188.340042 358.167664,195.378082 
M346.037415,191.074966 
	C345.399628,184.869598 345.353119,178.525375 343.938538,172.502441 
	C342.788971,167.607712 338.446014,165.161087 333.370239,165.034225 
	C328.234375,164.905869 324.133728,167.394974 322.420074,172.118530 
	C319.011353,181.514557 318.502441,191.086319 322.929901,201.137558 
	C325.759155,206.358688 330.421112,207.868134 335.858276,206.970169 
	C340.745850,206.162949 343.417572,202.561920 344.850128,198.101456 
	C345.474487,196.157455 345.547699,194.036453 346.037415,191.074966 
z"/>
<path fill="#F6F7F6" opacity="1.000000" stroke="none" 
	d="
M294.197327,210.730347 
	C287.181885,217.187805 279.230316,218.485046 270.510986,215.986237 
	C262.350220,213.647491 258.140839,207.685944 258.390930,198.348267 
	C260.310791,198.348267 262.253021,198.348282 264.195251,198.348282 
	C266.179688,198.348282 268.164093,198.348267 270.148529,198.348267 
	C269.870026,198.702713 269.591492,199.057159 269.312988,199.411591 
	C271.458466,201.941772 273.131073,205.705734 275.847290,206.746857 
	C281.612213,208.956528 285.967804,205.084671 286.051117,198.366196 
	C286.203888,186.046295 286.109802,173.723328 286.118286,161.401642 
	C286.119385,159.771408 286.118469,158.141159 286.118469,156.237488 
	C290.376434,156.237488 294.297333,156.237488 298.847473,156.237488 
	C298.847473,164.136093 298.961060,172.068085 298.815247,179.995285 
	C298.671875,187.792847 298.293976,195.586868 297.937164,203.378708 
	C297.893555,204.330673 297.343567,205.259460 296.996216,206.594177 
	C296.075714,208.137207 295.187256,209.285065 294.197327,210.730347 
z"/>
<path fill="#AF4A8A" opacity="1.000000" stroke="none" 
	d="
M308.041565,205.162720 
	C309.639282,207.100204 311.237030,209.037674 312.834747,210.975143 
	C312.647369,211.466843 312.459961,211.958557 312.272583,212.450256 
	C307.716705,212.088272 303.160217,211.732315 298.611969,211.291473 
	C298.558319,211.286270 298.610962,210.184540 299.210175,209.383514 
	C302.551422,207.835831 305.296478,206.499268 308.041565,205.162720 
z"/>
<path fill="#161513" opacity="1.000000" stroke="none" 
	d="
M301.054626,204.048965 
	C301.365967,198.990829 301.677277,193.932678 301.989227,188.422394 
	C307.424866,190.015182 304.367523,194.658905 305.021210,198.138199 
	C305.275665,199.492477 304.854950,200.973587 304.631958,202.971161 
	C303.366333,203.713242 302.210480,203.881104 301.054626,204.048965 
z"/>
<path fill="#270B23" opacity="1.000000" stroke="none" 
	d="
M300.919434,204.321716 
	C302.210480,203.881104 303.366333,203.713242 304.761810,203.288330 
	C305.975616,203.504913 306.949768,203.978546 307.982758,204.807434 
	C305.296478,206.499268 302.551422,207.835831 299.440399,209.195831 
	C299.058411,208.732635 299.042389,208.246017 299.040527,207.395599 
	C299.631195,206.219360 300.207733,205.406906 300.919434,204.321716 
z"/>
<path fill="#C136B7" opacity="1.000000" stroke="none" 
	d="
M356.858246,207.672699 
	C358.514557,201.396652 360.170868,195.120605 362.294006,188.377884 
	C364.897400,187.250229 367.033966,186.589249 369.092194,185.952515 
	C376.037628,201.601471 376.037628,201.601471 374.442627,207.454086 
	C378.943604,211.537613 379.054596,215.032104 374.516235,215.438065 
	C368.140686,216.008377 361.623688,215.130829 355.185669,214.633713 
	C354.630127,214.590805 354.212250,212.765594 353.730408,211.768311 
	C353.730408,211.768311 353.889740,211.720001 354.197174,211.775330 
	C355.289154,210.444656 356.073700,209.058670 356.858246,207.672699 
z"/>
<path fill="#B33DA2" opacity="1.000000" stroke="none" 
	d="
M353.416321,211.902344 
	C354.212250,212.765594 354.630127,214.590805 355.185669,214.633713 
	C361.623688,215.130829 368.140686,216.008377 374.516235,215.438065 
	C379.054596,215.032104 378.943604,211.537613 374.442627,207.454086 
	C376.037628,201.601471 376.037628,201.601471 369.092194,185.952515 
	C367.033966,186.589249 364.897400,187.250229 362.388458,187.954071 
	C362.867462,186.853912 363.483765,185.199387 364.620422,184.676910 
	C366.820526,183.665634 369.313721,183.291992 372.417145,182.833206 
	C378.173004,185.995422 382.844971,189.334503 384.900360,195.169556 
	C386.281830,199.091385 387.581177,203.042160 388.917267,206.979980 
	C388.518280,207.904709 388.119293,208.829437 387.086304,209.939178 
	C386.021973,210.876831 385.591675,211.629486 385.161377,212.382141 
	C381.274780,214.337250 377.472229,217.708221 373.483612,217.945068 
	C365.797577,218.401443 358.006317,217.085922 350.258698,216.505142 
	C350.106659,216.067795 349.954590,215.630463 349.802551,215.193130 
	C350.902435,214.140884 352.002289,213.088638 353.416321,211.902344 
z"/>
<path fill="#AF4A8A" opacity="1.000000" stroke="none" 
	d="
M389.134705,206.624481 
	C387.581177,203.042160 386.281830,199.091385 384.900360,195.169556 
	C382.844971,189.334503 378.173004,185.995422 372.794861,182.828705 
	C373.680939,182.319199 375.062317,181.462570 376.139343,181.749283 
	C387.340363,184.731079 392.352386,194.154938 389.134705,206.624481 
z"/>
<path fill="#B33DA2" opacity="1.000000" stroke="none" 
	d="
M356.601105,207.882355 
	C356.073700,209.058670 355.289154,210.444656 354.113953,211.783997 
	C354.596863,210.522247 355.470428,209.307144 356.601105,207.882355 
z"/>
<path fill="#AF4A8A" opacity="1.000000" stroke="none" 
	d="
M385.434631,212.224548 
	C385.591675,211.629486 386.021973,210.876831 386.816406,210.097900 
	C386.689636,210.736725 386.198761,211.401825 385.434631,212.224548 
z"/>
<path fill="#0B0A0B" opacity="1.000000" stroke="none" 
	d="
M322.831818,200.475800 
	C318.502441,191.086319 319.011353,181.514557 322.420074,172.118530 
	C324.133728,167.394974 328.234375,164.905869 333.370239,165.034225 
	C338.446014,165.161087 342.788971,167.607712 343.938538,172.502441 
	C345.353119,178.525375 345.399628,184.869598 345.593445,191.540054 
	C344.419708,191.013382 343.689911,190.021622 342.973389,188.564423 
	C342.986664,184.322525 342.986664,180.546066 342.986664,176.769592 
	C342.465668,177.080612 341.944672,177.391632 341.423706,177.702652 
	C340.057922,176.293396 337.521179,174.828751 337.584625,173.487122 
	C337.696320,171.126419 338.260590,168.636597 335.447937,168.516541 
	C332.769562,168.402206 328.863342,168.900589 327.516357,170.668335 
	C321.971863,177.944611 321.774414,186.416290 324.029907,195.438293 
	C323.618744,197.383560 323.225281,198.929688 322.831818,200.475800 
z"/>
<path fill="#270B23" opacity="1.000000" stroke="none" 
	d="
M342.960083,189.029861 
	C343.689911,190.021622 344.419708,191.013382 345.510376,192.000488 
	C345.547699,194.036453 345.474487,196.157455 344.850128,198.101456 
	C343.417572,202.561920 340.745850,206.162949 335.858276,206.970169 
	C330.421112,207.868134 325.759155,206.358688 322.880859,200.806671 
	C323.225281,198.929688 323.618744,197.383560 324.429688,195.428802 
	C326.585144,194.632462 328.380280,194.408585 330.049835,193.825180 
	C334.382751,192.311157 338.660400,190.638947 342.960083,189.029861 
M342.268433,193.264435 
	C336.505707,194.793869 330.742981,196.323318 324.546539,197.967880 
	C327.396667,203.559448 331.046356,204.999603 335.553223,203.980972 
	C340.816589,202.791397 342.106750,198.460419 342.268433,193.264435 
z"/>
<path fill="#161513" opacity="1.000000" stroke="none" 
	d="
M342.973389,188.564423 
	C338.660400,190.638947 334.382751,192.311157 330.049835,193.825180 
	C328.380280,194.408585 326.585144,194.632462 324.447388,195.029633 
	C321.774414,186.416290 321.971863,177.944611 327.516357,170.668335 
	C328.863342,168.900589 332.769562,168.402206 335.447937,168.516541 
	C338.260590,168.636597 337.696320,171.126419 337.584625,173.487122 
	C337.521179,174.828751 340.057922,176.293396 341.423706,177.702652 
	C341.944672,177.391632 342.465668,177.080612 342.986664,176.769592 
	C342.986664,180.546066 342.986664,184.322525 342.973389,188.564423 
z"/>
<path fill="#B33DA2" opacity="1.000000" stroke="none" 
	d="
M342.514526,193.546448 
	C342.106750,198.460419 340.816589,202.791397 335.553223,203.980972 
	C331.046356,204.999603 327.396667,203.559448 324.546539,197.967880 
	C330.742981,196.323318 336.505707,194.793869 342.514526,193.546448 
z"/>
</svg>