<svg version="1.1" id="Layer_1" xmlns="http://www.w3.org/2000/svg" xmlns:xlink="http://www.w3.org/1999/xlink" x="0px" y="0px"
	 width="100%" viewBox="0 0 570 262" enable-background="new 0 0 570 262" xml:space="preserve">
<path fill="#161513" opacity="1.000000" stroke="none" 
	d="
M525.000000,263.000000 
	C350.000061,263.000000 175.500107,263.000000 1.000117,263.000000 
	C1.000078,175.666748 1.000078,88.333488 1.000039,1.000176 
	C190.999863,1.000117 380.999725,1.000117 570.999634,1.000059 
	C570.999756,88.333168 570.999756,175.666336 570.999878,262.999756 
	C555.833313,263.000000 540.666687,263.000000 525.000000,263.000000 
M281.035614,207.106415 
	C281.350983,198.660095 281.864166,190.214920 281.913208,181.767059 
	C281.946777,175.984970 281.245789,170.202072 281.051331,164.413559 
	C280.969482,161.976959 281.451233,159.526810 281.496033,157.079529 
	C281.636047,149.433044 281.699036,141.785080 281.772552,134.137497 
	C281.802307,131.040497 282.068512,127.908691 281.702637,124.855576 
	C281.347626,121.893501 280.042969,119.690063 276.195496,119.915436 
	C270.723480,120.235970 265.218872,119.980087 259.728485,120.015747 
	C256.564484,120.036301 254.937485,121.341431 254.947220,124.857994 
	C255.031555,155.305832 255.035767,185.754150 254.944244,216.201965 
	C254.932877,219.979095 256.491272,221.148621 260.044708,221.049088 
	C266.362488,220.872086 272.688324,220.981903 279.008972,221.908783 
	C279.005249,225.393677 278.801025,228.895874 279.099701,232.354660 
	C279.214020,233.678207 280.241699,235.728165 281.261597,236.020096 
	C284.570862,236.967300 287.760559,238.676773 291.596680,236.497818 
	C295.624268,234.210114 300.246613,232.969528 305.134003,231.066986 
	C305.134003,228.503555 304.826843,225.834274 305.194092,223.261230 
	C306.132874,216.683838 313.830200,213.126816 319.730835,216.452972 
	C327.929871,221.074738 336.359467,221.285294 345.097198,218.708298 
	C346.064423,219.288132 347.012268,220.318604 348.002594,220.361160 
	C350.692963,220.476791 353.407501,219.986710 356.101379,220.074860 
	C362.311615,220.278030 368.598297,220.171768 374.695404,221.164886 
	C379.575897,221.959839 381.395721,217.635513 384.953247,216.601151 
	C389.941895,215.150696 391.658142,211.618652 392.010376,206.937134 
	C392.194519,204.489563 392.425018,202.045090 392.579346,199.595734 
	C393.134918,190.778976 386.737549,182.558563 378.359253,179.917282 
	C372.336670,178.018646 367.387909,180.822647 361.980896,181.189011 
	C361.618530,179.239899 361.130890,177.304520 360.915192,175.339310 
	C359.925018,166.318100 354.250793,159.976654 347.325775,155.621445 
	C340.380859,151.253693 331.630463,150.368546 323.938843,153.488632 
	C317.729279,156.007568 310.686188,158.680237 308.502655,166.674301 
	C307.635315,169.849579 305.412689,169.573044 303.292358,167.493652 
	C306.847046,160.701981 306.807465,155.110764 303.271637,152.415298 
	C300.244476,150.107620 291.944183,150.585831 289.286285,153.221069 
	C285.519623,156.955612 285.968475,160.396423 290.346832,166.455963 
	C289.381378,169.388748 288.127380,171.487030 288.086517,173.608688 
	C287.871887,184.748947 287.964142,195.895111 287.187164,207.114288 
	C285.151184,207.424408 283.115204,207.734528 281.035614,207.106415 
M234.417618,143.443848 
	C235.142044,143.049271 235.836899,142.582565 236.595520,142.271317 
	C244.000885,139.232849 247.054657,134.232574 245.967972,126.868202 
	C245.131195,121.197319 240.028336,116.840416 233.310410,116.060966 
	C227.583389,115.396492 221.925034,118.157440 219.980713,122.565086 
	C216.530533,130.386353 217.247986,135.106766 222.484512,139.974747 
	C223.780823,141.179825 224.831131,142.649521 225.159882,143.995346 
	C222.135864,143.759338 219.936691,144.340164 219.888535,148.139374 
	C219.848923,151.266129 219.065308,154.385727 219.053253,157.510208 
	C218.972946,178.327026 219.022217,199.144348 219.004807,219.961472 
	C218.999374,226.458603 218.129532,227.175369 211.807373,226.144943 
	C206.922073,225.348694 205.039551,226.891678 205.000320,231.785995 
	C204.970963,235.449570 204.604736,239.174561 205.159790,242.752563 
	C205.452667,244.640488 207.350861,247.742645 208.600922,247.780746 
	C216.558670,248.023331 225.191788,249.356110 232.299515,246.761078 
	C237.821335,244.745087 243.491089,239.062057 244.130234,231.334473 
	C244.661362,224.912857 245.820526,218.511398 245.904419,212.090591 
	C246.148117,193.441620 245.992157,174.787415 245.991150,156.135254 
	C245.990494,143.984802 245.989059,143.984802 234.417618,143.443848 
z"/>
<path fill="#080708" opacity="1.000000" stroke="none" 
	d="
M345.025635,218.020691 
	C336.359467,221.285294 327.929871,221.074738 319.730835,216.452972 
	C313.830200,213.126816 306.132874,216.683838 305.194092,223.261230 
	C304.826843,225.834274 305.134003,228.503555 305.134003,231.066986 
	C300.246613,232.969528 295.624268,234.210114 291.596680,236.497818 
	C287.760559,238.676773 284.570862,236.967300 281.261597,236.020096 
	C280.241699,235.728165 279.214020,233.678207 279.099701,232.354660 
	C278.801025,228.895874 279.005249,225.393677 279.212952,221.189728 
	C280.252930,220.307129 281.088898,220.143585 282.091980,220.268494 
	C284.015656,220.713455 285.772156,220.869980 288.093231,221.076782 
	C287.642761,218.118881 287.330750,216.070236 287.296326,213.742355 
	C287.699188,211.321823 287.824493,209.180527 287.949829,207.039230 
	C287.964142,195.895111 287.871887,184.748947 288.086517,173.608688 
	C288.127380,171.487030 289.381378,169.388748 290.346832,166.455963 
	C285.968475,160.396423 285.519623,156.955612 289.286285,153.221069 
	C291.944183,150.585831 300.244476,150.107620 303.271637,152.415298 
	C306.807465,155.110764 306.847046,160.701981 303.292358,167.493652 
	C305.412689,169.573044 307.635315,169.849579 308.502655,166.674301 
	C310.686188,158.680237 317.729279,156.007568 323.938843,153.488632 
	C331.630463,150.368546 340.380859,151.253693 347.325775,155.621445 
	C354.250793,159.976654 359.925018,166.318100 360.915192,175.339310 
	C361.130890,177.304520 361.618530,179.239899 361.840393,181.945312 
	C361.146454,185.216263 360.669037,187.751022 360.011993,190.238312 
	C359.594666,191.818192 358.910278,193.327530 358.426727,194.412308 
	C358.319946,187.704498 358.831024,181.334320 357.794891,175.226608 
	C355.800842,163.472748 345.881561,155.446533 334.097534,155.018555 
	C322.189392,154.586060 312.087677,161.690170 309.067505,173.430603 
	C306.014038,185.300537 306.572174,196.992371 312.811371,208.198456 
	C311.701080,208.124741 310.876190,207.699371 310.033691,207.312454 
	C308.859741,206.773315 307.672577,206.262894 306.491089,205.740204 
	C306.107330,207.103119 305.159180,208.596649 305.438995,209.806046 
	C306.562592,214.661804 309.884552,211.677322 312.159210,211.794342 
	C312.541870,210.266342 312.837158,209.087265 313.446411,208.027191 
	C323.341461,218.391251 334.443359,219.936874 347.997223,213.269379 
	C347.016907,215.092346 346.021271,216.556519 345.025635,218.020691 
M287.449677,234.009186 
	C297.985718,233.288879 302.851959,228.314758 302.902374,217.958694 
	C302.972778,203.487595 302.931915,189.015900 302.908112,174.544510 
	C302.906311,173.447632 302.662109,172.351135 302.535767,171.297455 
	C298.616302,171.297455 295.018097,171.297455 291.004852,171.297455 
	C291.004852,173.125656 291.004883,174.752472 291.004791,176.379288 
	C291.003967,190.019058 291.055145,203.659134 290.977051,217.298462 
	C290.945221,222.857056 289.637512,224.042648 284.277039,224.106598 
	C283.345978,224.117691 282.415985,224.216263 281.544067,224.270782 
	C280.780243,233.361984 280.780243,233.361984 287.449677,234.009186 
M290.880554,156.451340 
	C289.118530,159.730988 289.680206,162.669418 292.831451,164.535767 
	C295.927673,166.369553 299.627167,166.356125 301.703186,163.309555 
	C302.878662,161.584549 303.101349,157.074814 302.078461,156.414780 
	C299.665405,154.857788 296.263275,154.762192 293.226349,154.308594 
	C292.670593,154.225586 291.950317,155.244415 290.880554,156.451340 
z"/>
<path fill="#040404" opacity="1.000000" stroke="none" 
	d="
M234.005310,143.997910 
	C245.989059,143.984802 245.990494,143.984802 245.991150,156.135254 
	C245.992157,174.787415 246.148117,193.441620 245.904419,212.090591 
	C245.820526,218.511398 244.661362,224.912857 244.130234,231.334473 
	C243.491089,239.062057 237.821335,244.745087 232.299515,246.761078 
	C225.191788,249.356110 216.558670,248.023331 208.600922,247.780746 
	C207.350861,247.742645 205.452667,244.640488 205.159790,242.752563 
	C204.604736,239.174561 204.970963,235.449570 205.000320,231.785995 
	C205.039551,226.891678 206.922073,225.348694 211.807373,226.144943 
	C218.129532,227.175369 218.999374,226.458603 219.004807,219.961472 
	C219.022217,199.144348 218.972946,178.327026 219.053253,157.510208 
	C219.065308,154.385727 219.848923,151.266129 219.888535,148.139374 
	C219.936691,144.340164 222.135864,143.759338 226.022125,143.997971 
	C229.258011,143.999695 231.631653,143.998810 234.005310,143.997910 
M210.759171,230.054764 
	C209.980362,230.618881 208.568130,231.141068 208.527527,231.754074 
	C208.297134,235.234009 208.175140,238.757584 208.520325,242.215988 
	C208.618240,243.197128 210.329849,244.678513 211.426010,244.799225 
	C227.224091,246.539291 241.614609,242.290176 241.847702,221.020050 
	C242.031876,204.214874 241.889038,187.406113 241.890823,170.598953 
	C241.891617,163.149429 241.890961,155.699905 241.890961,148.053589 
	C235.429764,148.053589 229.395660,148.053589 223.036484,148.053589 
	C223.036484,150.134964 223.036499,151.935440 223.036484,153.735931 
	C223.036270,175.701736 223.041672,197.667526 223.033157,219.633331 
	C223.029694,228.550034 220.685822,230.700577 210.759171,230.054764 
z"/>
<path fill="#030303" opacity="1.000000" stroke="none" 
	d="
M281.924866,219.980042 
	C281.088898,220.143585 280.252930,220.307129 279.213867,220.721222 
	C272.688324,220.981903 266.362488,220.872086 260.044708,221.049088 
	C256.491272,221.148621 254.932877,219.979095 254.944244,216.201965 
	C255.035767,185.754150 255.031555,155.305832 254.947220,124.857994 
	C254.937485,121.341431 256.564484,120.036301 259.728485,120.015747 
	C265.218872,119.980087 270.723480,120.235970 276.195496,119.915436 
	C280.042969,119.690063 281.347626,121.893501 281.702637,124.855576 
	C282.068512,127.908691 281.802307,131.040497 281.772552,134.137497 
	C281.699036,141.785080 281.636047,149.433044 281.496033,157.079529 
	C281.451233,159.526810 280.969482,161.976959 281.051331,164.413559 
	C281.245789,170.202072 281.946777,175.984970 281.913208,181.767059 
	C281.864166,190.214920 281.350983,198.660095 281.034546,207.961609 
	C281.354004,210.546539 281.674561,212.276291 281.989929,214.432938 
	C281.964783,216.566574 281.944824,218.273300 281.924866,219.980042 
M277.905121,187.500031 
	C277.905121,166.404495 277.905121,145.308960 277.905121,123.972168 
	C271.240540,123.972168 265.016724,123.972168 258.616455,123.972168 
	C258.616455,155.075455 258.616455,185.927277 258.616455,216.696838 
	C265.173157,216.696838 271.415253,216.696838 277.905121,216.696838 
	C277.905121,207.090591 277.905121,197.795303 277.905121,187.500031 
z"/>
<path fill="#2A0E27" opacity="1.000000" stroke="none" 
	d="
M358.345642,194.868500 
	C358.910278,193.327530 359.594666,191.818192 360.011993,190.238312 
	C360.669037,187.751022 361.146454,185.216263 361.858490,182.352051 
	C367.387909,180.822647 372.336670,178.018646 378.359253,179.917282 
	C386.737549,182.558563 393.134918,190.778976 392.579346,199.595734 
	C392.425018,202.045090 392.194519,204.489563 392.010376,206.937134 
	C391.658142,211.618652 389.941895,215.150696 384.953247,216.601151 
	C381.395721,217.635513 379.575897,221.959839 374.695404,221.164886 
	C368.598297,220.171768 362.311615,220.278030 356.101379,220.074860 
	C353.407501,219.986710 350.692963,220.476791 348.002594,220.361160 
	C347.012268,220.318604 346.064423,219.288132 345.061401,218.364502 
	C346.021271,216.556519 347.016907,215.092346 348.154175,212.977966 
	C354.084839,207.911972 356.959595,201.818695 358.345642,194.868500 
M360.001678,200.995804 
	C360.001678,200.995804 359.950958,200.957489 359.462616,201.284210 
	C359.371979,201.848907 359.281342,202.413589 358.991913,203.362289 
	C358.991913,203.362289 358.910309,203.786926 358.451080,204.033249 
	C358.355927,204.354630 358.260773,204.676010 357.942871,205.333481 
	C357.942871,205.333481 357.862183,205.728546 357.319763,206.153259 
	C354.780792,209.327499 352.241821,212.501740 349.430847,216.016006 
	C356.501373,216.903442 363.198700,218.028366 369.942169,218.518585 
	C378.399628,219.133408 385.912079,214.332718 389.376984,206.269058 
	C392.246033,194.490753 387.681396,185.096939 377.671539,182.786224 
	C377.671539,182.786224 377.311218,182.822845 376.975983,182.321106 
	C375.968292,182.137527 374.960571,181.953949 373.205902,181.935257 
	C370.503510,182.747803 367.682373,183.304138 365.147919,184.478973 
	C363.844635,185.083099 363.052490,186.789780 361.857300,188.834457 
	C361.489105,192.059021 361.120941,195.283569 360.299622,199.008347 
	C360.181274,199.662186 360.062927,200.316010 360.001678,200.995804 
z"/>
<path fill="#080708" opacity="1.000000" stroke="none" 
	d="
M234.211456,143.720886 
	C231.631653,143.998810 229.258011,143.999695 226.439438,143.999084 
	C224.831131,142.649521 223.780823,141.179825 222.484512,139.974747 
	C217.247986,135.106766 216.530533,130.386353 219.980713,122.565086 
	C221.925034,118.157440 227.583389,115.396492 233.310410,116.060966 
	C240.028336,116.840416 245.131195,121.197319 245.967972,126.868202 
	C247.054657,134.232574 244.000885,139.232849 236.595520,142.271317 
	C235.836899,142.582565 235.142044,143.049271 234.211456,143.720886 
M225.610733,137.054047 
	C231.990875,141.331223 239.900360,137.989578 241.863068,133.210861 
	C243.594574,128.995087 242.178177,124.312965 238.358429,121.849060 
	C233.810104,118.915222 227.207382,119.750534 223.812057,123.689339 
	C220.718262,127.278336 221.164520,132.226669 225.610733,137.054047 
M227.514542,142.419556 
	C227.514542,142.419556 227.578781,142.527405 227.514542,142.419556 
z"/>
<path fill="#2A0E27" opacity="1.000000" stroke="none" 
	d="
M281.995117,214.006042 
	C281.674561,212.276291 281.354004,210.546539 281.056335,208.430725 
	C283.115204,207.734528 285.151184,207.424408 287.568481,207.076752 
	C287.824493,209.180527 287.699188,211.321823 286.877197,213.733444 
	C284.785339,214.004517 283.390228,214.005280 281.995117,214.006042 
z"/>
<path fill="#F9F9F9" opacity="1.000000" stroke="none" 
	d="
M358.426758,194.412308 
	C356.959595,201.818695 354.084839,207.911972 348.138855,212.619156 
	C334.443359,219.936874 323.341461,218.391251 313.393433,208.058060 
	C313.026398,207.969940 313.088928,207.863937 313.088928,207.863937 
	C306.572174,196.992371 306.014038,185.300537 309.067505,173.430603 
	C312.087677,161.690170 322.189392,154.586060 334.097534,155.018555 
	C345.881561,155.446533 355.800842,163.472748 357.794891,175.226608 
	C358.831024,181.334320 358.319946,187.704498 358.426758,194.412308 
M340.453033,204.034821 
	C347.404205,197.027893 348.458191,176.952423 342.272095,169.386154 
	C336.567963,162.409363 325.806305,163.759399 322.344116,172.322906 
	C318.678955,181.388504 318.772125,190.901321 322.344147,199.991653 
	C325.245117,207.374222 333.678680,209.312408 340.453033,204.034821 
z"/>
<path fill="#F9F9F9" opacity="1.000000" stroke="none" 
	d="
M287.016052,234.008606 
	C280.780243,233.361984 280.780243,233.361984 281.544067,224.270782 
	C282.415985,224.216263 283.345978,224.117691 284.277039,224.106598 
	C289.637512,224.042648 290.945221,222.857056 290.977051,217.298462 
	C291.055145,203.659134 291.003967,190.019058 291.004791,176.379288 
	C291.004883,174.752472 291.004852,173.125656 291.004852,171.297455 
	C295.018097,171.297455 298.616302,171.297455 302.535767,171.297455 
	C302.662109,172.351135 302.906311,173.447632 302.908112,174.544510 
	C302.931915,189.015900 302.972778,203.487595 302.902374,217.958694 
	C302.851959,228.314758 297.985718,233.288879 287.016052,234.008606 
z"/>
<path fill="#F8F8F8" opacity="1.000000" stroke="none" 
	d="
M291.093262,156.102966 
	C291.950317,155.244415 292.670593,154.225586 293.226349,154.308594 
	C296.263275,154.762192 299.665405,154.857788 302.078461,156.414780 
	C303.101349,157.074814 302.878662,161.584549 301.703186,163.309555 
	C299.627167,166.356125 295.927673,166.369553 292.831451,164.535767 
	C289.680206,162.669418 289.118530,159.730988 291.093262,156.102966 
z"/>
<path fill="#A44D84" opacity="1.000000" stroke="none" 
	d="
M313.079407,207.939072 
	C312.837158,209.087265 312.541870,210.266342 312.159210,211.794342 
	C309.884552,211.677322 306.562592,214.661804 305.438995,209.806046 
	C305.159180,208.596649 306.107330,207.103119 306.491089,205.740204 
	C307.672577,206.262894 308.859741,206.773315 310.033691,207.312454 
	C310.876190,207.699371 311.701080,208.124741 312.811371,208.198456 
	C313.088928,207.863937 313.026398,207.969940 313.079407,207.939072 
z"/>
<path fill="#161513" opacity="1.000000" stroke="none" 
	d="
M281.989929,214.432938 
	C283.390228,214.005280 284.785339,214.004517 286.599609,214.012680 
	C287.330750,216.070236 287.642761,218.118881 288.093231,221.076782 
	C285.772156,220.869980 284.015656,220.713455 282.092010,220.268494 
	C281.944824,218.273300 281.964783,216.566574 281.989929,214.432938 
z"/>
<path fill="#FBFBFB" opacity="1.000000" stroke="none" 
	d="
M211.213028,230.090515 
	C220.685822,230.700577 223.029694,228.550034 223.033157,219.633331 
	C223.041672,197.667526 223.036270,175.701736 223.036484,153.735931 
	C223.036499,151.935440 223.036484,150.134964 223.036484,148.053589 
	C229.395660,148.053589 235.429764,148.053589 241.890961,148.053589 
	C241.890961,155.699905 241.891617,163.149429 241.890823,170.598953 
	C241.889038,187.406113 242.031876,204.214874 241.847702,221.020050 
	C241.614609,242.290176 227.224091,246.539291 211.426010,244.799225 
	C210.329849,244.678513 208.618240,243.197128 208.520325,242.215988 
	C208.175140,238.757584 208.297134,235.234009 208.527527,231.754074 
	C208.568130,231.141068 209.980362,230.618881 211.213028,230.090515 
z"/>
<path fill="#F8F8F8" opacity="1.000000" stroke="none" 
	d="
M277.905121,188.000031 
	C277.905121,197.795303 277.905121,207.090591 277.905121,216.696838 
	C271.415253,216.696838 265.173157,216.696838 258.616455,216.696838 
	C258.616455,185.927277 258.616455,155.075455 258.616455,123.972168 
	C265.016724,123.972168 271.240540,123.972168 277.905121,123.972168 
	C277.905121,145.308960 277.905121,166.404495 277.905121,188.000031 
z"/>
<path fill="#C137B6" opacity="1.000000" stroke="none" 
	d="
M358.910309,203.786926 
	C358.910309,203.786926 358.991913,203.362289 359.303406,202.980225 
	C359.726898,202.051254 359.838928,201.504379 359.950958,200.957489 
	C359.950958,200.957489 360.001678,200.995804 360.250366,200.769714 
	C360.583618,199.865112 360.668182,199.186630 360.752747,198.508133 
	C361.120941,195.283569 361.489105,192.059021 362.311279,188.375488 
	C365.994171,186.972687 369.424255,184.229492 372.021545,189.318207 
	C373.025574,190.798752 374.027985,191.912018 375.034790,193.423523 
	C375.867035,198.852814 376.407135,203.953598 377.604065,208.895264 
	C378.792938,213.803513 377.571686,216.065216 372.389801,215.943314 
	C366.537384,215.805679 360.697083,215.154846 355.287537,214.759094 
	C356.202423,211.550171 357.032288,208.639359 357.862183,205.728546 
	C357.862183,205.728546 357.942871,205.333481 358.254913,205.018250 
	C358.804810,204.443954 358.919250,204.138580 358.910309,203.786926 
z"/>
<path fill="#AE3F9F" opacity="1.000000" stroke="none" 
	d="
M357.590973,205.940903 
	C357.032288,208.639359 356.202423,211.550171 355.287537,214.759094 
	C360.697083,215.154846 366.537384,215.805679 372.389801,215.943314 
	C377.571686,216.065216 378.792938,213.803513 377.604065,208.895264 
	C376.407135,203.953598 375.867035,198.852814 375.337830,193.588562 
	C376.746826,195.545059 377.787018,197.773926 378.983093,199.915771 
	C381.044525,203.607254 383.881378,205.261078 388.016937,203.378906 
	C388.327209,204.820053 388.638000,205.901993 388.948822,206.983948 
	C385.912079,214.332718 378.399628,219.133408 369.942169,218.518585 
	C363.198700,218.028366 356.501373,216.903442 349.430847,216.016006 
	C352.241821,212.501740 354.780792,209.327499 357.590973,205.940903 
z"/>
<path fill="#C7439D" opacity="1.000000" stroke="none" 
	d="
M388.017487,203.019699 
	C383.881378,205.261078 381.044525,203.607254 378.983093,199.915771 
	C377.787018,197.773926 376.746826,195.545059 375.333466,193.190323 
	C374.027985,191.912018 373.025574,190.798752 372.281128,189.090988 
	C373.026001,186.677002 373.512817,184.857529 374.413147,183.022186 
	C375.654816,182.945160 376.483032,182.884003 377.311218,182.822845 
	C377.311218,182.822845 377.671539,182.786224 377.870850,183.207764 
	C378.616211,184.620361 378.913361,186.101898 379.747528,186.525208 
	C386.629852,190.017731 388.211456,196.047302 388.017487,203.019699 
z"/>
<path fill="#A44D84" opacity="1.000000" stroke="none" 
	d="
M388.016937,203.378906 
	C388.211456,196.047302 386.629852,190.017731 379.747528,186.525208 
	C378.913361,186.101898 378.616211,184.620361 378.044006,183.260834 
	C387.681396,185.096939 392.246033,194.490753 389.162903,206.626495 
	C388.638000,205.901993 388.327209,204.820053 388.016937,203.378906 
z"/>
<path fill="#AE3F9F" opacity="1.000000" stroke="none" 
	d="
M373.999664,183.038040 
	C373.512817,184.857529 373.026001,186.677002 372.279572,188.723724 
	C369.424255,184.229492 365.994171,186.972687 362.397278,187.957382 
	C363.052490,186.789780 363.844635,185.083099 365.147919,184.478973 
	C367.682373,183.304138 370.503510,182.747803 373.590454,182.170135 
	C373.983215,182.616028 373.991455,182.827042 373.999664,183.038040 
z"/>
<path fill="#A44D84" opacity="1.000000" stroke="none" 
	d="
M374.413147,183.022186 
	C373.991455,182.827042 373.983215,182.616028 373.963928,182.087677 
	C374.960571,181.953949 375.968292,182.137527 377.143616,182.571991 
	C376.483032,182.884003 375.654816,182.945160 374.413147,183.022186 
z"/>
<path fill="#AE3F9F" opacity="1.000000" stroke="none" 
	d="
M359.706787,201.120850 
	C359.838928,201.504379 359.726898,202.051254 359.402771,202.788208 
	C359.281342,202.413589 359.371979,201.848907 359.706787,201.120850 
z"/>
<path fill="#AE3F9F" opacity="1.000000" stroke="none" 
	d="
M360.526184,198.758240 
	C360.668182,199.186630 360.583618,199.865112 360.221832,200.756714 
	C360.062927,200.316010 360.181274,199.662186 360.526184,198.758240 
z"/>
<path fill="#AE3F9F" opacity="1.000000" stroke="none" 
	d="
M358.680695,203.910095 
	C358.919250,204.138580 358.804810,204.443954 358.366272,204.850220 
	C358.260773,204.676010 358.355927,204.354630 358.680695,203.910095 
z"/>
<path fill="#F9F9F9" opacity="1.000000" stroke="none" 
	d="
M225.293274,136.823639 
	C221.164520,132.226669 220.718262,127.278336 223.812057,123.689339 
	C227.207382,119.750534 233.810104,118.915222 238.358429,121.849060 
	C242.178177,124.312965 243.594574,128.995087 241.863068,133.210861 
	C239.900360,137.989578 231.990875,141.331223 225.293274,136.823639 
z"/>
<path fill="#161513" opacity="1.000000" stroke="none" 
	d="
M227.546661,142.473480 
	C227.578781,142.527405 227.514542,142.419556 227.546661,142.473480 
z"/>
<path fill="#080708" opacity="1.000000" stroke="none" 
	d="
M340.190430,204.321701 
	C333.678680,209.312408 325.245117,207.374222 322.344147,199.991653 
	C318.772125,190.901321 318.678955,181.388504 322.344116,172.322906 
	C325.806305,163.759399 336.567963,162.409363 342.272095,169.386154 
	C348.458191,176.952423 347.404205,197.027893 340.190430,204.321701 
M325.016022,198.727051 
	C327.211670,200.763489 329.465332,204.586548 331.592651,204.517532 
	C339.502258,204.260895 341.683258,201.487640 342.933655,192.240738 
	C341.630829,191.473221 340.328003,190.705719 339.473511,189.450119 
	C342.921112,185.770905 343.524170,181.434937 342.651733,176.514969 
	C340.783539,176.134033 339.109711,175.792740 336.595581,175.280090 
	C338.432495,173.782227 339.583893,172.843369 340.737244,171.902878 
	C337.237244,167.915237 332.400055,166.801163 328.736542,169.179993 
	C323.020935,172.891296 320.579834,188.660400 324.979980,195.751495 
	C324.983887,196.495682 324.987823,197.239883 325.016022,198.727051 
z"/>
<path fill="#161513" opacity="1.000000" stroke="none" 
	d="
M325.001160,195.007324 
	C320.579834,188.660400 323.020935,172.891296 328.736542,169.179993 
	C332.400055,166.801163 337.237244,167.915237 340.737244,171.902878 
	C339.583893,172.843369 338.432495,173.782227 336.595581,175.280090 
	C339.109711,175.792740 340.783539,176.134033 342.651733,176.514969 
	C343.524170,181.434937 342.921112,185.770905 338.962708,189.924805 
	C333.968353,191.935440 329.484741,193.471390 325.001160,195.007324 
z"/>
<path fill="#AE3F9F" opacity="1.000000" stroke="none" 
	d="
M343.017395,192.922226 
	C341.683258,201.487640 339.502258,204.260895 331.592651,204.517532 
	C329.465332,204.586548 327.211670,200.763489 325.382507,198.317368 
	C331.505157,196.245865 337.261261,194.584045 343.017395,192.922226 
z"/>
<path fill="#2A0E27" opacity="1.000000" stroke="none" 
	d="
M342.975525,192.581482 
	C337.261261,194.584045 331.505157,196.245865 325.370361,197.945877 
	C324.987823,197.239883 324.983887,196.495682 324.990570,195.379425 
	C329.484741,193.471390 333.968353,191.935440 338.738556,190.168854 
	C340.328003,190.705719 341.630829,191.473221 342.975525,192.581482 
z"/>
</svg>