<?xml version="1.0" encoding="UTF-8"?>
<svg xmlns="http://www.w3.org/2000/svg" xmlns:xlink="http://www.w3.org/1999/xlink" width="124px" height="57px" viewBox="0 0 124 57" version="1.1">
<g id="surface1">
<path style=" stroke:none;fill-rule:nonzero;fill:rgb(8.627451%,8.235294%,7.45098%);fill-opacity:1;" d="M 114.210938 57.21875 C 76.140625 57.21875 38.179688 57.21875 0.21875 57.21875 C 0.21875 38.21875 0.21875 19.21875 0.21875 0.21875 C 41.550781 0.21875 82.882812 0.21875 124.21875 0.21875 C 124.21875 19.21875 124.21875 38.21875 124.21875 57.21875 C 120.917969 57.21875 117.617188 57.21875 114.210938 57.21875 M 61.136719 45.058594 C 61.207031 43.21875 61.316406 41.382812 61.328125 39.542969 C 61.335938 38.285156 61.183594 37.027344 61.140625 35.769531 C 61.125 35.238281 61.226562 34.707031 61.238281 34.171875 C 61.269531 32.511719 61.28125 30.847656 61.296875 29.183594 C 61.304688 28.507812 61.363281 27.828125 61.28125 27.164062 C 61.207031 26.519531 60.921875 26.039062 60.085938 26.089844 C 58.894531 26.160156 57.695312 26.101562 56.503906 26.109375 C 55.8125 26.113281 55.460938 26.398438 55.460938 27.164062 C 55.480469 33.789062 55.480469 40.414062 55.460938 47.035156 C 55.460938 47.859375 55.796875 48.113281 56.570312 48.089844 C 57.945312 48.050781 59.320312 48.078125 60.695312 48.277344 C 60.695312 49.035156 60.652344 49.796875 60.714844 50.550781 C 60.742188 50.839844 60.964844 51.285156 61.1875 51.347656 C 61.90625 51.554688 62.601562 51.925781 63.433594 51.453125 C 64.3125 50.953125 65.316406 50.683594 66.378906 50.269531 C 66.378906 49.710938 66.3125 49.132812 66.394531 48.570312 C 66.597656 47.140625 68.273438 46.367188 69.554688 47.089844 C 71.339844 48.097656 73.171875 48.140625 75.074219 47.582031 C 75.285156 47.707031 75.492188 47.933594 75.707031 47.941406 C 76.292969 47.964844 76.882812 47.859375 77.46875 47.878906 C 78.820312 47.921875 80.1875 47.898438 81.511719 48.117188 C 82.574219 48.289062 82.96875 47.347656 83.746094 47.125 C 84.828125 46.808594 85.203125 46.039062 85.28125 45.019531 C 85.320312 44.488281 85.371094 43.957031 85.402344 43.421875 C 85.523438 41.503906 84.132812 39.71875 82.308594 39.140625 C 81 38.730469 79.921875 39.339844 78.746094 39.417969 C 78.667969 38.996094 78.5625 38.574219 78.515625 38.144531 C 78.300781 36.183594 77.066406 34.804688 75.558594 33.855469 C 74.046875 32.90625 72.144531 32.714844 70.472656 33.390625 C 69.121094 33.941406 67.585938 34.523438 67.113281 36.261719 C 66.925781 36.953125 66.441406 36.890625 65.980469 36.441406 C 66.753906 34.960938 66.742188 33.746094 65.976562 33.160156 C 65.316406 32.65625 63.511719 32.761719 62.933594 33.335938 C 62.113281 34.148438 62.210938 34.894531 63.164062 36.214844 C 62.953125 36.851562 62.679688 37.308594 62.671875 37.769531 C 62.625 40.195312 62.644531 42.617188 62.476562 45.058594 C 62.03125 45.125 61.589844 45.195312 61.136719 45.058594 M 50.996094 31.207031 C 51.152344 31.121094 51.304688 31.019531 51.46875 30.953125 C 53.082031 30.292969 53.746094 29.203125 53.507812 27.601562 C 53.328125 26.367188 52.214844 25.417969 50.753906 25.25 C 49.507812 25.105469 48.277344 25.707031 47.855469 26.664062 C 47.105469 28.367188 47.261719 29.394531 48.398438 30.453125 C 48.683594 30.714844 48.910156 31.035156 48.980469 31.328125 C 48.324219 31.277344 47.847656 31.402344 47.835938 32.230469 C 47.828125 32.910156 47.65625 33.585938 47.652344 34.265625 C 47.636719 38.796875 47.648438 43.324219 47.644531 47.855469 C 47.640625 49.269531 47.453125 49.421875 46.078125 49.199219 C 45.015625 49.027344 44.605469 49.363281 44.597656 50.425781 C 44.589844 51.222656 44.511719 52.035156 44.632812 52.8125 C 44.695312 53.222656 45.109375 53.898438 45.378906 53.90625 C 47.109375 53.960938 48.988281 54.25 50.535156 53.683594 C 51.738281 53.246094 52.96875 52.007812 53.109375 50.328125 C 53.222656 48.929688 53.476562 47.539062 53.496094 46.140625 C 53.546875 42.085938 53.515625 38.027344 53.515625 33.96875 C 53.515625 31.324219 53.511719 31.324219 50.996094 31.207031 Z M 50.996094 31.207031 "/>
<path style=" stroke:none;fill-rule:nonzero;fill:rgb(3.137255%,2.745098%,3.137255%);fill-opacity:1;" d="M 75.058594 47.433594 C 73.171875 48.140625 71.339844 48.097656 69.554688 47.089844 C 68.273438 46.367188 66.597656 47.140625 66.394531 48.570312 C 66.3125 49.132812 66.378906 49.710938 66.378906 50.269531 C 65.316406 50.683594 64.3125 50.953125 63.433594 51.453125 C 62.601562 51.925781 61.90625 51.554688 61.1875 51.347656 C 60.964844 51.285156 60.742188 50.839844 60.714844 50.550781 C 60.652344 49.796875 60.695312 49.035156 60.742188 48.121094 C 60.96875 47.929688 61.148438 47.894531 61.367188 47.921875 C 61.785156 48.019531 62.167969 48.050781 62.671875 48.097656 C 62.574219 47.453125 62.507812 47.007812 62.5 46.5 C 62.585938 45.972656 62.613281 45.507812 62.640625 45.042969 C 62.644531 42.617188 62.625 40.195312 62.671875 37.769531 C 62.679688 37.308594 62.953125 36.851562 63.164062 36.214844 C 62.210938 34.894531 62.113281 34.148438 62.933594 33.335938 C 63.511719 32.761719 65.316406 32.65625 65.976562 33.160156 C 66.742188 33.746094 66.753906 34.960938 65.980469 36.441406 C 66.441406 36.890625 66.925781 36.953125 67.113281 36.261719 C 67.585938 34.523438 69.121094 33.941406 70.472656 33.390625 C 72.144531 32.714844 74.046875 32.90625 75.558594 33.855469 C 77.066406 34.804688 78.300781 36.183594 78.515625 38.144531 C 78.5625 38.574219 78.667969 38.996094 78.714844 39.582031 C 78.566406 40.296875 78.460938 40.847656 78.320312 41.386719 C 78.226562 41.730469 78.078125 42.058594 77.972656 42.296875 C 77.949219 40.835938 78.0625 39.449219 77.835938 38.121094 C 77.402344 35.566406 75.246094 33.820312 72.679688 33.726562 C 70.089844 33.632812 67.894531 35.175781 67.234375 37.730469 C 66.570312 40.3125 66.691406 42.855469 68.050781 45.296875 C 67.808594 45.277344 67.628906 45.1875 67.445312 45.101562 C 67.191406 44.984375 66.933594 44.875 66.675781 44.761719 C 66.589844 45.058594 66.386719 45.382812 66.445312 45.644531 C 66.691406 46.703125 67.414062 46.050781 67.910156 46.078125 C 67.992188 45.746094 68.054688 45.488281 68.1875 45.257812 C 70.339844 47.511719 72.757812 47.847656 75.703125 46.398438 C 75.492188 46.792969 75.273438 47.113281 75.058594 47.433594 M 62.53125 50.910156 C 64.824219 50.753906 65.882812 49.671875 65.894531 47.417969 C 65.910156 44.269531 65.902344 41.121094 65.894531 37.972656 C 65.894531 37.734375 65.84375 37.496094 65.816406 37.265625 C 64.960938 37.265625 64.179688 37.265625 63.304688 37.265625 C 63.304688 37.664062 63.304688 38.019531 63.304688 38.371094 C 63.304688 41.339844 63.316406 44.308594 63.300781 47.273438 C 63.292969 48.484375 63.007812 48.742188 61.84375 48.757812 C 61.640625 48.757812 61.4375 48.78125 61.25 48.792969 C 61.082031 50.769531 61.082031 50.769531 62.53125 50.910156 M 63.277344 34.039062 C 62.894531 34.75 63.019531 35.390625 63.703125 35.796875 C 64.378906 36.195312 65.183594 36.191406 65.632812 35.527344 C 65.890625 35.152344 65.9375 34.171875 65.714844 34.027344 C 65.191406 33.691406 64.449219 33.667969 63.789062 33.570312 C 63.667969 33.554688 63.511719 33.773438 63.277344 34.039062 Z M 63.277344 34.039062 "/>
<path style=" stroke:none;fill-rule:nonzero;fill:rgb(1.568627%,1.568627%,1.568627%);fill-opacity:1;" d="M 50.90625 31.328125 C 53.511719 31.324219 53.515625 31.324219 53.515625 33.96875 C 53.515625 38.027344 53.546875 42.085938 53.496094 46.140625 C 53.476562 47.539062 53.222656 48.929688 53.109375 50.328125 C 52.96875 52.007812 51.738281 53.246094 50.535156 53.683594 C 48.988281 54.25 47.109375 53.960938 45.378906 53.90625 C 45.109375 53.898438 44.695312 53.222656 44.632812 52.8125 C 44.511719 52.035156 44.589844 51.222656 44.597656 50.425781 C 44.605469 49.363281 45.015625 49.027344 46.078125 49.199219 C 47.453125 49.421875 47.640625 49.269531 47.644531 47.855469 C 47.648438 43.324219 47.636719 38.796875 47.652344 34.265625 C 47.65625 33.585938 47.828125 32.910156 47.835938 32.230469 C 47.847656 31.402344 48.324219 31.277344 49.167969 31.328125 C 49.875 31.328125 50.390625 31.328125 50.90625 31.328125 M 45.847656 50.050781 C 45.679688 50.171875 45.371094 50.285156 45.363281 50.417969 C 45.3125 51.175781 45.289062 51.945312 45.363281 52.695312 C 45.382812 52.910156 45.757812 53.230469 45.996094 53.257812 C 49.429688 53.636719 52.5625 52.710938 52.613281 48.085938 C 52.652344 44.429688 52.621094 40.773438 52.621094 37.113281 C 52.621094 35.496094 52.621094 33.875 52.621094 32.210938 C 51.214844 32.210938 49.902344 32.210938 48.519531 32.210938 C 48.519531 32.664062 48.519531 33.054688 48.519531 33.445312 C 48.519531 38.226562 48.519531 43.003906 48.519531 47.78125 C 48.519531 49.722656 48.007812 50.191406 45.847656 50.050781 Z M 45.847656 50.050781 "/>
<path style=" stroke:none;fill-rule:nonzero;fill:rgb(1.176471%,1.176471%,1.176471%);fill-opacity:1;" d="M 61.332031 47.859375 C 61.148438 47.894531 60.96875 47.929688 60.742188 48.019531 C 59.320312 48.078125 57.945312 48.050781 56.570312 48.089844 C 55.796875 48.113281 55.460938 47.859375 55.460938 47.035156 C 55.480469 40.414062 55.480469 33.789062 55.460938 27.164062 C 55.460938 26.398438 55.8125 26.113281 56.503906 26.109375 C 57.695312 26.101562 58.894531 26.160156 60.085938 26.089844 C 60.921875 26.039062 61.207031 26.519531 61.28125 27.164062 C 61.363281 27.828125 61.304688 28.507812 61.296875 29.183594 C 61.28125 30.847656 61.269531 32.511719 61.238281 34.171875 C 61.226562 34.707031 61.125 35.238281 61.140625 35.769531 C 61.183594 37.027344 61.335938 38.285156 61.328125 39.542969 C 61.316406 41.382812 61.207031 43.21875 61.136719 45.242188 C 61.207031 45.804688 61.277344 46.183594 61.34375 46.652344 C 61.339844 47.117188 61.335938 47.488281 61.332031 47.859375 M 60.457031 40.792969 C 60.457031 36.203125 60.457031 31.613281 60.457031 26.972656 C 59.007812 26.972656 57.652344 26.972656 56.261719 26.972656 C 56.261719 33.738281 56.261719 40.449219 56.261719 47.144531 C 57.6875 47.144531 59.042969 47.144531 60.457031 47.144531 C 60.457031 45.054688 60.457031 43.03125 60.457031 40.792969 Z M 60.457031 40.792969 "/>
<path style=" stroke:none;fill-rule:nonzero;fill:rgb(16.470588%,5.490196%,15.294118%);fill-opacity:1;" d="M 77.957031 42.394531 C 78.078125 42.058594 78.226562 41.730469 78.320312 41.386719 C 78.460938 40.847656 78.566406 40.296875 78.71875 39.671875 C 79.921875 39.339844 81 38.730469 82.308594 39.140625 C 84.132812 39.71875 85.523438 41.503906 85.402344 43.421875 C 85.371094 43.957031 85.320312 44.488281 85.28125 45.019531 C 85.203125 46.039062 84.828125 46.808594 83.746094 47.125 C 82.96875 47.347656 82.574219 48.289062 81.511719 48.117188 C 80.1875 47.898438 78.820312 47.921875 77.46875 47.878906 C 76.882812 47.859375 76.292969 47.964844 75.707031 47.941406 C 75.492188 47.933594 75.285156 47.707031 75.066406 47.507812 C 75.273438 47.113281 75.492188 46.792969 75.738281 46.335938 C 77.027344 45.234375 77.65625 43.90625 77.957031 42.394531 M 78.316406 43.726562 C 78.316406 43.726562 78.304688 43.71875 78.199219 43.789062 C 78.179688 43.914062 78.160156 44.035156 78.097656 44.242188 C 78.097656 44.242188 78.078125 44.335938 77.980469 44.390625 C 77.957031 44.457031 77.9375 44.527344 77.867188 44.671875 C 77.867188 44.671875 77.851562 44.757812 77.734375 44.851562 C 77.179688 45.539062 76.628906 46.230469 76.015625 46.996094 C 77.554688 47.1875 79.011719 47.433594 80.480469 47.539062 C 82.320312 47.675781 83.953125 46.628906 84.707031 44.875 C 85.332031 42.3125 84.335938 40.269531 82.160156 39.765625 C 82.160156 39.765625 82.082031 39.773438 82.007812 39.664062 C 81.789062 39.625 81.570312 39.585938 81.1875 39.582031 C 80.601562 39.757812 79.988281 39.878906 79.4375 40.132812 C 79.152344 40.265625 78.980469 40.636719 78.71875 41.082031 C 78.640625 41.785156 78.558594 42.484375 78.382812 43.296875 C 78.355469 43.4375 78.328125 43.582031 78.316406 43.726562 Z M 78.316406 43.726562 "/>
<path style=" stroke:none;fill-rule:nonzero;fill:rgb(3.137255%,2.745098%,3.137255%);fill-opacity:1;" d="M 50.953125 31.265625 C 50.390625 31.328125 49.875 31.328125 49.261719 31.328125 C 48.910156 31.035156 48.683594 30.714844 48.398438 30.453125 C 47.261719 29.394531 47.105469 28.367188 47.855469 26.664062 C 48.277344 25.707031 49.507812 25.105469 50.753906 25.25 C 52.214844 25.417969 53.328125 26.367188 53.507812 27.601562 C 53.746094 29.203125 53.082031 30.292969 51.46875 30.953125 C 51.304688 31.019531 51.152344 31.121094 50.953125 31.265625 M 49.082031 29.816406 C 50.46875 30.746094 52.1875 30.019531 52.617188 28.980469 C 52.992188 28.0625 52.683594 27.046875 51.851562 26.507812 C 50.863281 25.871094 49.425781 26.050781 48.6875 26.910156 C 48.015625 27.691406 48.113281 28.765625 49.082031 29.816406 M 49.496094 30.984375 C 49.496094 30.984375 49.507812 31.007812 49.496094 30.984375 Z M 49.496094 30.984375 "/>
<path style=" stroke:none;fill-rule:nonzero;fill:rgb(16.470588%,5.490196%,15.294118%);fill-opacity:1;" d="M 61.347656 46.558594 C 61.277344 46.183594 61.207031 45.804688 61.140625 45.34375 C 61.589844 45.195312 62.03125 45.125 62.558594 45.050781 C 62.613281 45.507812 62.585938 45.972656 62.410156 46.5 C 61.953125 46.558594 61.648438 46.558594 61.347656 46.558594 Z M 61.347656 46.558594 "/>
<path style=" stroke:none;fill-rule:nonzero;fill:rgb(97.647059%,97.647059%,97.647059%);fill-opacity:1;" d="M 77.972656 42.296875 C 77.65625 43.90625 77.027344 45.234375 75.734375 46.257812 C 72.757812 47.847656 70.339844 47.511719 68.175781 45.265625 C 68.097656 45.246094 68.109375 45.222656 68.109375 45.222656 C 66.691406 42.855469 66.570312 40.3125 67.234375 37.730469 C 67.894531 35.175781 70.089844 33.632812 72.679688 33.726562 C 75.246094 33.820312 77.402344 35.566406 77.835938 38.121094 C 78.0625 39.449219 77.949219 40.835938 77.972656 42.296875 M 74.0625 44.390625 C 75.574219 42.863281 75.804688 38.496094 74.460938 36.851562 C 73.21875 35.332031 70.878906 35.628906 70.125 37.488281 C 69.328125 39.460938 69.347656 41.53125 70.125 43.507812 C 70.753906 45.117188 72.589844 45.539062 74.0625 44.390625 Z M 74.0625 44.390625 "/>
<path style=" stroke:none;fill-rule:nonzero;fill:rgb(97.647059%,97.647059%,97.647059%);fill-opacity:1;" d="M 62.4375 50.910156 C 61.082031 50.769531 61.082031 50.769531 61.25 48.792969 C 61.4375 48.78125 61.640625 48.757812 61.84375 48.757812 C 63.007812 48.742188 63.292969 48.484375 63.300781 47.273438 C 63.316406 44.308594 63.304688 41.339844 63.304688 38.371094 C 63.304688 38.019531 63.304688 37.664062 63.304688 37.265625 C 64.179688 37.265625 64.960938 37.265625 65.816406 37.265625 C 65.84375 37.496094 65.894531 37.734375 65.894531 37.972656 C 65.902344 41.121094 65.910156 44.269531 65.894531 47.417969 C 65.882812 49.671875 64.824219 50.753906 62.4375 50.910156 Z M 62.4375 50.910156 "/>
<path style=" stroke:none;fill-rule:nonzero;fill:rgb(97.254902%,97.254902%,97.254902%);fill-opacity:1;" d="M 63.324219 33.960938 C 63.511719 33.773438 63.667969 33.554688 63.789062 33.570312 C 64.449219 33.667969 65.191406 33.691406 65.714844 34.027344 C 65.9375 34.171875 65.890625 35.152344 65.632812 35.527344 C 65.183594 36.191406 64.378906 36.195312 63.703125 35.796875 C 63.019531 35.390625 62.894531 34.75 63.324219 33.960938 Z M 63.324219 33.960938 "/>
<path style=" stroke:none;fill-rule:nonzero;fill:rgb(64.313725%,30.196078%,51.764706%);fill-opacity:1;" d="M 68.109375 45.238281 C 68.054688 45.488281 67.992188 45.746094 67.910156 46.078125 C 67.414062 46.050781 66.691406 46.703125 66.445312 45.644531 C 66.386719 45.382812 66.589844 45.058594 66.675781 44.761719 C 66.933594 44.875 67.191406 44.984375 67.445312 45.101562 C 67.628906 45.1875 67.808594 45.277344 68.050781 45.296875 C 68.109375 45.222656 68.097656 45.246094 68.109375 45.238281 Z M 68.109375 45.238281 "/>
<path style=" stroke:none;fill-rule:nonzero;fill:rgb(8.627451%,8.235294%,7.45098%);fill-opacity:1;" d="M 61.34375 46.652344 C 61.648438 46.558594 61.953125 46.558594 62.347656 46.558594 C 62.507812 47.007812 62.574219 47.453125 62.671875 48.097656 C 62.167969 48.050781 61.785156 48.019531 61.367188 47.921875 C 61.335938 47.488281 61.339844 47.117188 61.34375 46.652344 Z M 61.34375 46.652344 "/>
<path style=" stroke:none;fill-rule:nonzero;fill:rgb(98.431373%,98.431373%,98.431373%);fill-opacity:1;" d="M 45.949219 50.058594 C 48.007812 50.191406 48.519531 49.722656 48.519531 47.78125 C 48.519531 43.003906 48.519531 38.226562 48.519531 33.445312 C 48.519531 33.054688 48.519531 32.664062 48.519531 32.210938 C 49.902344 32.210938 51.214844 32.210938 52.621094 32.210938 C 52.621094 33.875 52.621094 35.496094 52.621094 37.113281 C 52.621094 40.773438 52.652344 44.429688 52.613281 48.085938 C 52.5625 52.710938 49.429688 53.636719 45.996094 53.257812 C 45.757812 53.230469 45.382812 52.910156 45.363281 52.695312 C 45.289062 51.945312 45.3125 51.175781 45.363281 50.417969 C 45.371094 50.285156 45.679688 50.171875 45.949219 50.058594 Z M 45.949219 50.058594 "/>
<path style=" stroke:none;fill-rule:nonzero;fill:rgb(97.254902%,97.254902%,97.254902%);fill-opacity:1;" d="M 60.457031 40.902344 C 60.457031 43.03125 60.457031 45.054688 60.457031 47.144531 C 59.042969 47.144531 57.6875 47.144531 56.261719 47.144531 C 56.261719 40.449219 56.261719 33.738281 56.261719 26.972656 C 57.652344 26.972656 59.007812 26.972656 60.457031 26.972656 C 60.457031 31.613281 60.457031 36.203125 60.457031 40.902344 Z M 60.457031 40.902344 "/>
<path style=" stroke:none;fill-rule:nonzero;fill:rgb(75.686275%,21.568627%,71.372549%);fill-opacity:1;" d="M 78.078125 44.335938 C 78.078125 44.335938 78.097656 44.242188 78.164062 44.160156 C 78.257812 43.957031 78.28125 43.839844 78.304688 43.71875 C 78.304688 43.71875 78.316406 43.726562 78.371094 43.679688 C 78.441406 43.480469 78.460938 43.335938 78.480469 43.1875 C 78.558594 42.484375 78.640625 41.785156 78.820312 40.984375 C 79.621094 40.675781 80.367188 40.082031 80.929688 41.1875 C 81.148438 41.507812 81.367188 41.75 81.585938 42.082031 C 81.765625 43.261719 81.886719 44.371094 82.144531 45.445312 C 82.402344 46.515625 82.136719 47.007812 81.011719 46.980469 C 79.738281 46.949219 78.46875 46.808594 77.289062 46.722656 C 77.488281 46.023438 77.671875 45.390625 77.851562 44.757812 C 77.851562 44.757812 77.867188 44.671875 77.9375 44.601562 C 78.054688 44.476562 78.082031 44.410156 78.078125 44.335938 Z M 78.078125 44.335938 "/>
<path style=" stroke:none;fill-rule:nonzero;fill:rgb(68.235294%,24.705882%,62.352941%);fill-opacity:1;" d="M 77.792969 44.804688 C 77.671875 45.390625 77.488281 46.023438 77.289062 46.722656 C 78.46875 46.808594 79.738281 46.949219 81.011719 46.980469 C 82.136719 47.007812 82.402344 46.515625 82.144531 45.445312 C 81.886719 44.371094 81.765625 43.261719 81.652344 42.117188 C 81.957031 42.542969 82.183594 43.027344 82.445312 43.492188 C 82.894531 44.296875 83.511719 44.65625 84.410156 44.246094 C 84.476562 44.558594 84.546875 44.796875 84.613281 45.03125 C 83.953125 46.628906 82.320312 47.675781 80.480469 47.539062 C 79.011719 47.433594 77.554688 47.1875 76.015625 46.996094 C 76.628906 46.230469 77.179688 45.539062 77.792969 44.804688 Z M 77.792969 44.804688 "/>
<path style=" stroke:none;fill-rule:nonzero;fill:rgb(78.039216%,26.27451%,61.568627%);fill-opacity:1;" d="M 84.410156 44.167969 C 83.511719 44.65625 82.894531 44.296875 82.445312 43.492188 C 82.183594 43.027344 81.957031 42.542969 81.652344 42.03125 C 81.367188 41.75 81.148438 41.507812 80.988281 41.136719 C 81.148438 40.613281 81.253906 40.21875 81.453125 39.816406 C 81.722656 39.800781 81.902344 39.789062 82.082031 39.773438 C 82.082031 39.773438 82.160156 39.765625 82.203125 39.859375 C 82.367188 40.164062 82.429688 40.488281 82.613281 40.578125 C 84.109375 41.339844 84.453125 42.652344 84.410156 44.167969 Z M 84.410156 44.167969 "/>
<path style=" stroke:none;fill-rule:nonzero;fill:rgb(64.313725%,30.196078%,51.764706%);fill-opacity:1;" d="M 84.410156 44.246094 C 84.453125 42.652344 84.109375 41.339844 82.613281 40.578125 C 82.429688 40.488281 82.367188 40.164062 82.242188 39.871094 C 84.335938 40.269531 85.332031 42.3125 84.660156 44.953125 C 84.546875 44.796875 84.476562 44.558594 84.410156 44.246094 Z M 84.410156 44.246094 "/>
<path style=" stroke:none;fill-rule:nonzero;fill:rgb(68.235294%,24.705882%,62.352941%);fill-opacity:1;" d="M 81.363281 39.820312 C 81.253906 40.21875 81.148438 40.613281 80.988281 41.058594 C 80.367188 40.082031 79.621094 40.675781 78.835938 40.890625 C 78.980469 40.636719 79.152344 40.265625 79.4375 40.132812 C 79.988281 39.878906 80.601562 39.757812 81.273438 39.632812 C 81.359375 39.730469 81.359375 39.773438 81.363281 39.820312 Z M 81.363281 39.820312 "/>
<path style=" stroke:none;fill-rule:nonzero;fill:rgb(64.313725%,30.196078%,51.764706%);fill-opacity:1;" d="M 81.453125 39.816406 C 81.359375 39.773438 81.359375 39.730469 81.355469 39.613281 C 81.570312 39.585938 81.789062 39.625 82.046875 39.71875 C 81.902344 39.789062 81.722656 39.800781 81.453125 39.816406 Z M 81.453125 39.816406 "/>
<path style=" stroke:none;fill-rule:nonzero;fill:rgb(68.235294%,24.705882%,62.352941%);fill-opacity:1;" d="M 78.253906 43.753906 C 78.28125 43.839844 78.257812 43.957031 78.1875 44.117188 C 78.160156 44.035156 78.179688 43.914062 78.253906 43.753906 Z M 78.253906 43.753906 "/>
<path style=" stroke:none;fill-rule:nonzero;fill:rgb(68.235294%,24.705882%,62.352941%);fill-opacity:1;" d="M 78.429688 43.242188 C 78.460938 43.335938 78.441406 43.480469 78.363281 43.675781 C 78.328125 43.582031 78.355469 43.4375 78.429688 43.242188 Z M 78.429688 43.242188 "/>
<path style=" stroke:none;fill-rule:nonzero;fill:rgb(68.235294%,24.705882%,62.352941%);fill-opacity:1;" d="M 78.027344 44.363281 C 78.082031 44.410156 78.054688 44.476562 77.960938 44.566406 C 77.9375 44.527344 77.957031 44.457031 78.027344 44.363281 Z M 78.027344 44.363281 "/>
<path style=" stroke:none;fill-rule:nonzero;fill:rgb(97.647059%,97.647059%,97.647059%);fill-opacity:1;" d="M 49.011719 29.765625 C 48.113281 28.765625 48.015625 27.691406 48.6875 26.910156 C 49.425781 26.050781 50.863281 25.871094 51.851562 26.507812 C 52.683594 27.046875 52.992188 28.0625 52.617188 28.980469 C 52.1875 30.019531 50.46875 30.746094 49.011719 29.765625 Z M 49.011719 29.765625 "/>
<path style=" stroke:none;fill-rule:nonzero;fill:rgb(8.627451%,8.235294%,7.45098%);fill-opacity:1;" d="M 49.5 30.996094 C 49.507812 31.007812 49.496094 30.984375 49.5 30.996094 Z M 49.5 30.996094 "/>
<path style=" stroke:none;fill-rule:nonzero;fill:rgb(3.137255%,2.745098%,3.137255%);fill-opacity:1;" d="M 74.007812 44.453125 C 72.589844 45.539062 70.753906 45.117188 70.125 43.507812 C 69.347656 41.53125 69.328125 39.460938 70.125 37.488281 C 70.878906 35.628906 73.21875 35.332031 74.460938 36.851562 C 75.804688 38.496094 75.574219 42.863281 74.007812 44.453125 M 70.707031 43.234375 C 71.183594 43.675781 71.671875 44.507812 72.136719 44.496094 C 73.855469 44.4375 74.332031 43.835938 74.601562 41.824219 C 74.320312 41.65625 74.035156 41.488281 73.851562 41.214844 C 74.601562 40.414062 74.730469 39.472656 74.542969 38.402344 C 74.136719 38.320312 73.769531 38.246094 73.222656 38.132812 C 73.625 37.808594 73.875 37.601562 74.125 37.398438 C 73.363281 36.53125 72.3125 36.289062 71.515625 36.804688 C 70.269531 37.613281 69.738281 41.042969 70.699219 42.585938 C 70.699219 42.75 70.699219 42.910156 70.707031 43.234375 Z M 70.707031 43.234375 "/>
<path style=" stroke:none;fill-rule:nonzero;fill:rgb(8.627451%,8.235294%,7.45098%);fill-opacity:1;" d="M 70.703125 42.425781 C 69.738281 41.042969 70.269531 37.613281 71.515625 36.804688 C 72.3125 36.289062 73.363281 36.53125 74.125 37.398438 C 73.875 37.601562 73.625 37.808594 73.222656 38.132812 C 73.769531 38.246094 74.136719 38.320312 74.542969 38.402344 C 74.730469 39.472656 74.601562 40.414062 73.738281 41.320312 C 72.652344 41.757812 71.675781 42.089844 70.703125 42.425781 Z M 70.703125 42.425781 "/>
<path style=" stroke:none;fill-rule:nonzero;fill:rgb(68.235294%,24.705882%,62.352941%);fill-opacity:1;" d="M 74.621094 41.972656 C 74.332031 43.835938 73.855469 44.4375 72.136719 44.496094 C 71.671875 44.507812 71.183594 43.675781 70.785156 43.144531 C 72.117188 42.695312 73.367188 42.332031 74.621094 41.972656 Z M 74.621094 41.972656 "/>
<path style=" stroke:none;fill-rule:nonzero;fill:rgb(16.470588%,5.490196%,15.294118%);fill-opacity:1;" d="M 74.613281 41.898438 C 73.367188 42.332031 72.117188 42.695312 70.78125 43.066406 C 70.699219 42.910156 70.699219 42.75 70.699219 42.507812 C 71.675781 42.089844 72.652344 41.757812 73.691406 41.371094 C 74.035156 41.488281 74.320312 41.65625 74.613281 41.898438 Z M 74.613281 41.898438 "/>
</g>
</svg>
